# xmcd
#
# Track frame offsets: 
#        150
#        19747
#        33297
#        53033
#        73939
#        97576
#        139575
#        164076
#        180859
#        204301
#        224260
#        239705
#        278584
#        306791
#
# Disc length: 4391 seconds
#
# Revision: 0
# Processed by: cddbd v1.5.2PL0 Copyright (c) Steve Scherf et al.
# Submitted via: ExactAudioCopyFreeDBPlugin 1.0
#
DISCID=bd11250e
DTITLE=赵已然 - 活在1988（南门空间现场）
DYEAR=1900
DGENRE=
TTITLE0=寂寞难耐
TTITLE1=都是我的
TTITLE2=逍遥自在
TTITLE3=跟着感觉走
TTITLE4=我是不是你最疼爱的人
TTITLE5=吉尔拉+我是多么想念你
TTITLE6=北京的金山上
TTITLE7=诗意
TTITLE8=回家
TTITLE9=枫叶红了的时候
TTITLE10=月亮代表我的心
TTITLE11=乡间小路+踏着夕阳归去
TTITLE12=白庙
TTITLE13=再回首
EXTD=
EXTT0=
EXTT1=
EXTT2=
EXTT3=
EXTT4=
EXTT5=
EXTT6=
EXTT7=
EXTT8=
EXTT9=
EXTT10=
EXTT11=
EXTT12=
EXTT13=
PLAYORDER=
